<svg width="179" height="55" viewBox="0 0 179 55" fill="none" xmlns="http://www.w3.org/2000/svg">
<path d="M70.4795 17.5764V32.1523H74.149H77.8185V26.2812C77.8185 20.9808 77.8592 20.3488 78.2058 19.5742C78.8378 18.2287 80.2036 17.7191 81.4879 18.3918C82.6499 18.983 82.7111 19.3295 82.813 25.9754L82.9353 32.0504L86.4825 32.1116L90.0501 32.1523V25.3638C90.0501 21.6128 89.9685 18.0656 89.8462 17.4744C89.3365 14.7631 87.726 12.6633 85.5855 11.8887C84.7497 11.6033 84.1381 11.5421 82.6499 11.6033C80.6725 11.6848 79.9794 11.9294 78.6135 13.0099C78.2058 13.3361 77.8388 13.6011 77.7981 13.6011C77.7573 13.6011 77.7369 11.2159 77.7777 8.30072L77.8388 3.00036H74.149H70.4795V17.5764Z" fill="white"/>
<path d="M146.947 3.44875C146.845 3.71377 145.173 7.72981 143.257 12.3778C141.32 17.0258 139.71 20.9603 139.648 21.0826C139.567 21.2865 140.484 21.3477 143.828 21.3477H148.088L150.392 15.7823C151.656 12.7448 153.368 8.60641 154.184 6.60858L155.672 3.00026H151.391C147.151 3.00026 147.11 3.00026 146.947 3.44875Z" fill="white"/>
<path d="M53.049 11.9304C51.4385 12.4808 50.2562 13.2759 49.0126 14.601C47.1167 16.6599 46.2197 19.0655 46.2197 22.1642C46.2197 25.3036 47.1167 27.6888 49.0942 29.7885C51.1124 31.9494 53.4568 32.8872 56.372 32.7241C58.1455 32.6222 59.4095 32.1329 60.5307 31.1544L61.285 30.502L61.3461 31.3583L61.4073 32.1941L64.6691 32.1737C66.463 32.1737 67.992 32.1533 68.0939 32.1533C68.1754 32.1533 68.2366 27.6072 68.2366 22.0622V11.9712H64.771H61.3054V12.807V13.6428L60.5511 13.072C60.1434 12.7662 59.2872 12.2973 58.6756 12.0323C57.2282 11.4411 54.5984 11.4004 53.049 11.9304ZM59.3891 18.5966C60.6122 19.3101 61.3054 20.5537 61.3054 22.0215C61.3054 23.3873 61.0607 24.1008 60.3268 24.8959C58.7775 26.5472 56.0458 26.6695 54.3945 25.1609C53.3344 24.1824 52.8452 22.0011 53.3752 20.5944C53.6606 19.8402 54.7207 18.7189 55.4954 18.3724C56.5554 17.9035 58.3902 18.0054 59.3891 18.5966Z" fill="white"/>
<path d="M98.815 12.0311C93.9835 13.6824 91.1498 17.943 91.5372 22.958C91.9856 28.6457 96.5113 32.7637 102.342 32.7637C108.519 32.7637 113.085 28.2991 113.126 22.2445C113.146 19.0439 112.086 16.4753 109.905 14.4163C108.559 13.1727 106.704 12.1534 105.135 11.7865C103.463 11.3991 100.303 11.5215 98.815 12.0311ZM103.871 18.3915C107.459 19.9001 107.031 25.2005 103.259 26.0363C100.67 26.6275 98.4072 24.8335 98.4072 22.163C98.4072 20.8786 98.7538 20.002 99.6508 19.1458C100.731 18.1061 102.423 17.8003 103.871 18.3915Z" fill="white"/>
<path d="M122.076 11.8882C116.164 13.4783 112.882 20.1649 115.104 26.0565C117.346 31.9072 124.379 34.4759 130.373 31.6015C131.902 30.8676 134.226 28.5436 134.96 27.0146C135.816 25.2206 136.183 23.3451 136.061 21.4492C135.734 16.8012 132.86 13.2133 128.395 11.8882C126.989 11.4805 123.605 11.4805 122.076 11.8882ZM126.561 18.3302C128.253 18.901 129.191 20.2668 129.191 22.1424C129.191 26.3826 123.503 27.7485 121.668 23.9567C120.098 20.6746 123.156 17.1478 126.561 18.3302Z" fill="white"/>
<path d="M23.5708 13.3371C23.897 14.1118 25.8133 18.6579 27.8519 23.469C29.8701 28.2801 31.5417 32.3165 31.5417 32.4388C31.5417 32.5611 30.9098 34.192 30.1147 36.0267C29.34 37.8615 28.6877 39.4924 28.6877 39.6351C28.6877 40.002 35.884 40.0224 36.1694 39.6351C36.2917 39.5127 36.8829 38.1469 37.4944 36.6383C38.1264 35.1298 40.6543 28.9936 43.1414 23.0001C45.6081 17.027 47.6467 12.0936 47.6467 12.0528C47.6467 11.9916 45.9343 11.9916 43.8549 12.012L40.0631 12.0732L37.7595 17.8832L35.4558 23.6932L35.0685 22.7758C34.8443 22.2662 33.8046 19.6364 32.7445 16.9251L30.8282 11.9713H26.9141H23L23.5708 13.3371Z" fill="white"/>
<path d="M139.669 23.6722C136.815 24.9973 136.061 28.8299 138.222 31.1131C140.852 33.8856 145.643 32.4994 146.336 28.7483C147.07 24.875 143.278 22.0006 139.669 23.6722Z" fill="white"/>
<path d="M81.6907 34.3539C81.2422 34.5578 80.8345 35.0063 80.5898 35.4752C79.8355 37.0449 80.9364 38.6758 82.7915 38.6758C83.4031 38.6758 83.7089 38.5331 84.2593 37.9827C84.8301 37.4118 84.9524 37.1468 84.9524 36.3925C84.9524 35.3325 84.5243 34.6597 83.607 34.2724C82.7304 33.9055 82.5469 33.9055 81.6907 34.3539Z" fill="white"/>
<path d="M74.8616 34.6814C74.2908 34.9464 73.5773 35.4357 73.2715 35.8027C72.7007 36.4958 72.1095 38.1674 72.1095 39.1052C72.1095 39.6148 72.028 39.676 71.3552 39.7372C70.5806 39.7983 70.5806 39.7983 70.5194 40.8176C70.4786 41.368 70.499 42.1427 70.5806 42.4893C70.6825 43.1008 70.764 43.162 71.396 43.162H72.1095V47.2392V51.3164H74.25H76.3906V47.2392V43.162H77.8176H79.265L79.2038 41.47L79.1427 39.7983L77.7768 39.7372C76.4517 39.676 76.3906 39.6556 76.3906 39.1867C76.3906 38.3101 77.1041 37.8209 78.2457 37.9024L79.2446 37.9636V36.2104C79.2446 34.1718 79.265 34.1922 77.1041 34.1922C76.2479 34.1922 75.5751 34.3349 74.8616 34.6814Z" fill="white"/>
<path d="M92.1901 39.8187C91.864 39.9818 91.4359 40.2672 91.2524 40.4303C90.9058 40.7361 90.6408 40.7972 90.6816 40.5526C90.8243 39.7372 90.7223 39.6964 88.6226 39.6964H86.584V45.5064V51.3164H88.6226H90.6612L90.6816 48.707C90.702 45.4045 90.8854 43.9978 91.3747 43.6513C91.9455 43.2435 92.7813 43.3047 93.2298 43.794C93.5764 44.1813 93.6172 44.6298 93.6783 47.7692L93.7599 51.3164H95.7985H97.8167L97.7555 46.6684L97.6944 42L97.1235 41.1642C96.8178 40.6953 96.2062 40.1245 95.7577 39.9002C94.7792 39.411 93.0667 39.3702 92.1901 39.8187Z" fill="white"/>
<path d="M102.098 40.0218C98.7542 41.6935 97.9795 46.9123 100.63 49.9294C101.608 51.0507 102.75 51.5195 104.442 51.5195C105.685 51.5195 105.991 51.438 106.827 50.908L107.785 50.2964V50.806C107.785 51.3157 107.785 51.3157 109.824 51.3157H111.862V45.5057V39.6957H109.824H107.785V40.2053C107.785 40.7353 107.5 40.878 107.255 40.4907C106.97 40.0218 105.42 39.4918 104.299 39.4918C103.484 39.4918 102.872 39.6345 102.098 40.0218ZM106.888 43.7117C107.826 44.3233 108.05 46.1988 107.276 47.0346C106.399 48.0131 104.768 48.0539 103.851 47.1162C103.117 46.3823 102.974 45.5668 103.443 44.6291C104.095 43.2836 105.624 42.8759 106.888 43.7117Z" fill="white"/>
<path d="M119.161 39.9002C118.754 40.1245 118.346 40.3895 118.285 40.5118C118.142 40.7565 117.755 40.7972 117.796 40.5526C117.938 39.7372 117.836 39.6964 115.777 39.6964H113.759L113.637 41.8777C113.555 43.0601 113.494 45.6695 113.494 47.6877V51.3164H115.635H117.775L117.796 48.6051C117.816 44.2628 118.081 43.3659 119.406 43.3659C120.527 43.3659 120.629 43.7532 120.629 47.7081V51.3164H122.77H124.91V46.8723V42.4485L124.339 41.4292C123.381 39.6556 120.996 38.9421 119.161 39.9002Z" fill="white"/>
<path d="M130.414 39.6757C127.825 40.5115 126.357 42.4074 126.174 45.1187C126.011 47.7893 127.234 49.991 129.497 51.0307C130.638 51.5607 133.084 51.7034 134.246 51.2957C134.98 51.0511 135.103 50.6841 135.103 48.6863C135.103 47.3408 135.062 47.2185 134.756 47.3408C133.003 48.0747 131.474 47.8505 130.822 46.77C130.088 45.5876 130.495 44.0383 131.657 43.549C132.228 43.3248 133.778 43.3859 134.654 43.6713C135.103 43.814 135.103 43.7936 135.103 41.9793C135.103 40.2669 135.062 40.1038 134.654 39.8795C134.104 39.5737 131.127 39.431 130.414 39.6757Z" fill="white"/>
<path d="M139.648 39.8391C138.404 40.2672 136.876 41.7147 136.305 42.999C135.652 44.5075 135.652 46.7092 136.305 48.1974C136.876 49.4817 138.16 50.7253 139.424 51.1941C140.851 51.7446 143.827 51.5815 145.173 50.9087C146.029 50.4602 147.334 49.2371 147.334 48.8498C147.334 48.7886 146.559 48.4216 145.621 48.0547L143.888 47.4023L143.338 47.8305C142.543 48.4624 141.157 48.4216 140.504 47.7489C140.219 47.4839 139.995 47.1169 139.995 46.9335C139.995 46.6685 140.504 46.6277 143.868 46.6277H147.741V45.221C147.741 42.632 146.09 40.3692 143.705 39.6964C142.645 39.411 140.647 39.4722 139.648 39.8391ZM143.195 43.2028C144.072 44.0183 143.827 44.1814 141.829 44.1814C139.811 44.1814 139.526 43.9571 140.525 43.1824C141.258 42.5913 142.563 42.6116 143.195 43.2028Z" fill="white"/>
<path d="M80.6719 45.5064V51.3164H82.7105H84.7491V45.5064V39.6964H82.7105H80.6719V45.5064Z" fill="white"/>
</svg>
