<svg width="179" height="55" viewBox="0 0 179 55" fill="none" xmlns="http://www.w3.org/2000/svg">
<path d="M1 24.1513V37.3086L8.66306 37.2811C16.9182 37.2535 16.5327 37.2673 17.9166 36.8886C20.4503 36.1932 22.1991 34.3756 22.9082 31.6904C23.1148 30.9055 23.1217 30.8022 23.1285 29.5216C23.1354 28.3443 23.1148 28.1033 22.9771 27.5663C22.4676 25.5696 21.2352 24.0549 19.4864 23.2906C19.2247 23.1805 18.9975 23.0565 18.9837 23.029C18.97 22.9946 19.2041 22.8156 19.5001 22.6366C19.7962 22.4507 20.1955 22.1615 20.3952 21.9825C21.1181 21.3491 21.6827 20.2406 21.8617 19.1114C21.9856 18.3472 21.9168 16.7016 21.7309 16.0131C20.9529 13.0595 18.6877 11.3933 15.0111 11.0766C14.5085 11.0284 11.603 11.0008 7.59588 11.0008H1V24.1513ZM13.8475 17.0597C14.6531 17.4728 15.0248 18.1682 14.9629 19.1596C14.9078 20.0409 14.4809 20.7019 13.758 21.0323C13.3311 21.2251 13.338 21.2251 10.4187 21.2045L8.16045 21.1907V18.9875V16.7774L10.7699 16.798L13.3724 16.8187L13.8475 17.0597ZM14.4603 26.4164C15.0111 26.6368 15.5206 27.1531 15.734 27.6971C15.8648 28.0344 15.8992 28.241 15.8992 28.7987C15.8992 29.7075 15.734 30.155 15.1901 30.6989C14.4672 31.4219 13.9232 31.5183 10.5978 31.5183H8.2293V28.8675V26.2099L11.1417 26.2306C14.0265 26.2512 14.0472 26.2512 14.4603 26.4164Z" fill="white"/>
<path d="M24.2715 24.1862V37.3711H27.6796H31.0877V24.1862V11.0014H27.6796H24.2715V24.1862Z" fill="white"/>
<path d="M104.689 24.1518V37.3022H107.857H111.024V36.0905V34.8787L111.368 35.3951C112.47 37.0406 114.232 37.9219 116.422 37.9219C120.938 37.9219 123.713 34.8236 124.181 29.2605C124.443 26.2035 123.809 23.1259 122.515 21.1224C121.558 19.6421 120.312 18.6851 118.687 18.1824C118.115 18.0034 118.005 17.9965 116.704 17.9965C115.492 17.9965 115.258 18.0172 114.776 18.148C113.626 18.4647 112.711 19.0224 111.864 19.9106C111.595 20.1998 111.354 20.4339 111.334 20.4339C111.313 20.4339 111.299 18.3133 111.299 15.7176V11.0013H107.994H104.689V24.1518ZM115.327 23.0433C116.236 23.4426 116.862 24.3652 117.186 25.7698C117.365 26.5202 117.434 27.7251 117.358 28.6133C117.172 30.6857 116.552 31.9525 115.444 32.4965C115.031 32.703 114.928 32.7237 114.363 32.7237C113.805 32.7237 113.695 32.703 113.275 32.5033C111.76 31.7873 110.907 29.5634 111.155 26.9884C111.299 25.5357 111.678 24.5029 112.332 23.7869C112.745 23.3325 113.027 23.1466 113.557 22.9744C114.067 22.8023 114.859 22.8367 115.327 23.0433Z" fill="white"/>
<path d="M164.417 18.0577C161.965 18.6016 160.017 20.5707 159.094 23.4625C158.323 25.8653 158.303 29.0049 159.046 31.2081C159.459 32.4543 160.086 33.4871 160.919 34.3339C161.993 35.408 163.342 36.0965 164.878 36.3375C165.683 36.4683 167.246 36.3926 167.859 36.1998C168.816 35.8969 169.752 35.3185 170.365 34.6507C170.524 34.4785 170.668 34.3408 170.682 34.3408C170.765 34.3408 170.709 36.3375 170.613 36.7713C170.331 38.1207 169.539 38.7886 168.134 38.8643C166.819 38.94 165.773 38.4581 165.374 37.5906L165.243 37.3083L162.027 37.3014H158.812L158.846 37.5217C159.308 40.1587 160.905 41.997 163.535 42.9058C166.234 43.8353 170.241 43.7527 172.713 42.7062C173.883 42.2173 175.026 41.3223 175.715 40.3515C176.128 39.7731 176.658 38.6578 176.872 37.9073C177.257 36.5647 177.257 36.6267 177.257 27.1873V18.5052H174.09H170.923V19.5173L170.916 20.5363L170.703 20.2609C170.317 19.7721 169.443 18.9596 169.043 18.7187C168.554 18.4295 167.935 18.2023 167.253 18.0646C166.613 17.9269 165.009 17.9269 164.417 18.0577ZM168.72 23.1595C169.697 23.4487 170.413 24.3093 170.799 25.645C171.005 26.3679 171.019 28.0548 170.826 28.7984C170.303 30.8226 168.816 31.9035 167.281 31.3803C166.117 30.9878 165.401 29.9688 165.139 28.3233C165.029 27.6623 165.084 26.1958 165.243 25.5968C165.738 23.7103 167.177 22.6982 168.72 23.1595Z" fill="white"/>
<path d="M84.2205 18.0915C82.5474 18.3738 81.1291 19.3377 80.179 20.8317C80.0069 21.1072 79.8485 21.3275 79.821 21.3275C79.7865 21.3275 79.7659 20.7078 79.7659 19.9505V18.5735H76.5988H73.4316V27.9371V37.3008H76.8397H80.2478V32.1852C80.2478 29.1902 80.2754 26.8217 80.3167 26.4568C80.537 24.5428 81.4803 23.5031 82.8986 23.6133C83.8556 23.6959 84.4064 24.171 84.7644 25.2519C84.8815 25.6031 84.8952 26.0231 84.9159 31.4691L84.9366 37.3008H88.2345H91.5324L91.56 31.7445C91.5806 26.7735 91.5944 26.1332 91.6977 25.7477C92.0557 24.412 92.7649 23.7028 93.832 23.6202C94.9336 23.5307 95.7117 24.109 96.0559 25.2864C96.1661 25.6651 96.1798 26.1952 96.2005 31.4967L96.228 37.3008H99.526H102.831V30.9459C102.831 25.8991 102.81 24.4464 102.734 23.8749C102.438 21.6924 101.667 20.1364 100.387 19.1587C99.7876 18.7043 99.3607 18.4908 98.5827 18.2499C98.0044 18.0708 97.908 18.064 96.5654 18.064C95.0163 18.0571 94.4999 18.1466 93.5704 18.5666C92.634 18.9934 91.6632 19.8334 91.0574 20.7285C90.8852 20.9763 90.7338 21.1829 90.7131 21.1829C90.6925 21.1829 90.5272 20.9144 90.3344 20.5839C89.584 19.2826 88.4066 18.4358 86.9126 18.1328C86.3411 18.0158 84.8195 17.9951 84.2205 18.0915Z" fill="white"/>
<path d="M132.712 18.126C129.572 18.6423 127.08 20.5357 125.847 23.3448C125.235 24.7287 124.932 26.271 124.932 27.9578C124.939 32.0062 126.708 35.1802 129.868 36.8051C131.273 37.528 132.547 37.8379 134.337 37.8998C138.536 38.0375 141.621 36.4746 143.163 33.4108C143.363 33.0114 143.728 32.0269 143.824 31.6344L143.866 31.4485H140.65H137.428L137.297 31.779C137.125 32.1784 136.567 32.7498 136.141 32.9495C135.61 33.1973 134.949 33.28 134.316 33.1836C132.808 32.9495 131.927 31.903 131.583 29.9476L131.548 29.7273H137.855H144.162L144.12 28.6739C143.976 25.1487 143.074 22.6081 141.304 20.7423C140.086 19.4548 138.722 18.6837 136.912 18.2499C136.285 18.0984 135.989 18.0778 134.743 18.0502C133.717 18.0365 133.125 18.0571 132.712 18.126ZM135.294 22.6701C136.023 22.8629 136.678 23.4068 137.036 24.1228C137.228 24.5084 137.462 25.3553 137.462 25.6789V25.9405H134.509H131.548L131.589 25.6789C131.658 25.1694 131.899 24.3845 132.099 24.0127C132.719 22.8422 133.951 22.3258 135.294 22.6701Z" fill="white"/>
<path d="M40.3545 18.1959C38.2821 18.5333 36.6504 19.3044 35.294 20.5988C33.8826 21.9483 32.9738 23.7177 32.5951 25.8452C32.4023 26.9193 32.3885 28.8609 32.5607 29.9556C33.2216 34.1417 35.9137 36.937 40.0722 37.7632C41.0361 37.956 43.6043 37.9354 44.5544 37.7288C46.558 37.2951 47.9556 36.5652 49.2362 35.2777C50.5926 33.9214 51.3981 32.3172 51.7906 30.2103C51.9352 29.4186 51.9903 27.3599 51.887 26.5131C51.3568 22.1411 48.7474 19.1943 44.6164 18.2992C43.7144 18.0995 41.3047 18.0445 40.3545 18.1959ZM43.1223 22.9466C44.3892 23.5181 45.1327 25.3702 45.1327 27.9727C45.1259 30.6648 44.4167 32.4617 43.0879 33.1158C42.6954 33.3086 42.5646 33.3362 42.0758 33.3362C41.5801 33.343 41.463 33.3155 41.0568 33.1158C39.7762 32.4893 39.1428 30.8025 39.1428 28.014C39.1428 25.4046 39.7142 23.7384 40.8503 23.0361C41.4699 22.6506 42.3856 22.6161 43.1223 22.9466Z" fill="white"/>
<path d="M60.598 18.1959C58.8974 18.4713 57.3758 19.1047 56.1778 20.0204C55.6408 20.4404 54.7113 21.4388 54.3395 21.9896C52.3015 25.0672 52.0812 29.7352 53.8231 33.1158C54.7319 34.8921 56.2604 36.3173 58.085 37.1091C59.5033 37.715 60.9629 37.9629 62.8563 37.9009C64.6395 37.8458 65.8926 37.5498 67.2214 36.875C70.3885 35.2708 72.1305 32.1175 72.1236 27.9727C72.1167 22.8364 69.4591 19.2975 64.8598 18.2854C64.0267 18.0995 61.5068 18.0513 60.598 18.1959ZM63.3176 22.9259C64.5776 23.5043 65.2247 24.9501 65.3487 27.4563C65.4864 30.2792 64.7497 32.4066 63.4002 33.0883C63.0284 33.281 62.3812 33.3981 62.0094 33.343C61.5206 33.281 60.8803 32.9368 60.5567 32.5719C60.0196 31.9591 59.6341 30.947 59.462 29.6939C59.4207 29.4048 59.3862 28.6474 59.3862 28.0071C59.3862 26.7678 59.4551 26.0999 59.6616 25.2737C59.999 23.9587 60.7288 23.0567 61.6583 22.7951C62.1265 22.6643 62.8701 22.7194 63.3176 22.9259Z" fill="white"/>
<path d="M155.742 18.2651C154.234 18.6025 153.077 19.4769 152.072 21.0398C151.914 21.2807 151.769 21.5424 151.749 21.6112C151.625 22.0037 151.576 21.6112 151.576 20.1585V18.5749H148.409H145.242V27.973V37.3711H148.575H151.914L151.941 32.7719C151.969 27.5392 151.969 27.5461 152.568 26.3206C153.098 25.2465 153.759 24.6544 154.881 24.262C155.418 24.0692 155.542 24.0554 156.43 24.0554C156.961 24.0485 157.573 24.0761 157.794 24.1036L158.186 24.1587V21.2394V18.3133L157.973 18.2375C157.677 18.1343 156.251 18.1549 155.742 18.2651Z" fill="white"/>
</svg>
