<svg width="180" height="46" viewBox="0 0 180 46" fill="none" xmlns="http://www.w3.org/2000/svg">
<path d="M12.1254 0.175777C6.88702 0.973503 2.23363 3.92508 0.584997 7.51484C0 8.7646 0 9.03051 0 19.5605V30.3297L0.691361 31.8188C2.10067 34.797 5.45111 37.2433 9.83859 38.4665C12.5774 39.2376 17.6563 39.3174 20.4483 38.6261C22.7085 38.0676 25.1283 36.9242 26.8035 35.6479C27.6012 35.0363 28.0533 34.8236 28.0533 35.0629C28.0533 35.2756 27.4949 37.7486 26.8301 40.5672C26.1653 43.3592 25.6867 45.7258 25.7399 45.779C25.8197 45.8853 44.2205 19.3477 45.1778 17.7789C45.4171 17.3534 45.6298 17.2737 39.381 19.9327C36.7485 21.023 34.5414 21.9005 34.4883 21.8207C34.4085 21.7675 34.8073 20.5177 35.3658 19.0552L36.3496 16.3696L41.455 16.3164L46.5339 16.2366L47.6507 11.7162C48.2623 9.21665 48.8473 6.87666 48.9271 6.45121L49.1132 5.73325H39.0885H29.0637L27.4683 4.27076C25.6069 2.54236 23.5594 1.45214 20.8206 0.681004C18.5338 0.0428238 14.5186 -0.196491 12.1254 0.175777ZM21.2195 2.38282C23.2669 3.07418 24.8624 3.92508 26.2717 5.09507L27.0428 5.73325H22.416H17.8158L16.6724 10.4398C16.0608 13.0457 15.4758 15.4389 15.3961 15.758L15.2365 16.3696H20.1824C25.7931 16.3696 26.0856 16.5291 23.0542 17.9118C17.8424 20.3316 11.8063 20.1721 6.75406 17.5396C3.58976 15.8643 1.46249 12.9659 1.46249 10.2803C1.46249 8.95074 2.52613 6.87666 3.88226 5.52053C5.26498 4.13781 8.6686 2.4094 11.0352 1.87759C13.8006 1.266 18.6401 1.50532 21.2195 2.38282ZM47.1455 7.64779C47.0923 7.83393 46.6668 9.50914 46.2414 11.3705L45.4703 14.7741H40.551H35.6317L33.4778 19.8264C32.2812 22.6184 31.3771 24.8786 31.4835 24.8786C31.5633 24.8786 33.6639 23.9745 36.1369 22.8843C38.6098 21.7675 40.6573 20.9166 40.7105 20.9698C40.7637 21.023 38.211 24.985 35.0467 29.7447C31.909 34.5311 29.2765 38.4133 29.2499 38.3867C29.1967 38.3336 29.4626 36.9774 29.8083 35.382C30.154 33.7599 30.4465 32.2709 30.4465 32.005C30.4465 31.6593 29.6487 31.9252 26.5376 33.2813C24.3838 34.212 22.549 34.9565 22.4426 34.9299C22.3629 34.8768 23.2669 30.5425 24.4901 25.2775C25.7133 20.0125 26.7237 15.5187 26.7237 15.2528C26.7237 14.8007 26.3515 14.7741 21.9108 14.7741H17.0979L17.2574 14.1625C17.3372 13.8434 17.7361 12.1682 18.1349 10.4664L18.8795 7.3287H33.0789C44.3003 7.3287 47.2252 7.40847 47.1455 7.64779ZM6.67429 19.1882C8.9611 20.2784 12.7636 21.1559 15.3695 21.1559C17.4436 21.1559 20.5547 20.5709 22.6554 19.7732C23.4531 19.4807 24.171 19.2946 24.2242 19.3743C24.304 19.4275 24.0913 20.5177 23.7722 21.7675L23.2138 24.0277L21.4588 24.6127C19.0124 25.4636 13.774 25.6498 10.9554 25.0382C5.31816 23.7884 1.46249 20.2252 1.46249 16.2898V15.2528L3.05794 16.7418C3.98862 17.5927 5.50429 18.6298 6.67429 19.1882ZM6.38179 25.0382C9.49291 26.5272 11.2213 26.8463 15.5556 26.8729C18.5072 26.8729 19.7836 26.7666 20.9801 26.3943C21.831 26.1284 22.5756 25.9688 22.6288 26.022C22.7617 26.155 21.7513 30.4627 21.5651 30.6754C21.2195 31.0211 17.6031 31.4997 15.4227 31.4997C9.33337 31.5263 4.25453 29.1597 2.33999 25.4636C1.7284 24.267 1.46249 23.4161 1.46249 22.5652V21.3686L3.00476 22.7779C3.82907 23.5491 5.37134 24.5595 6.38179 25.0382ZM6.56793 31.1275C10.2109 32.8559 14.5983 33.4674 18.7199 32.8824C19.9431 32.6963 20.9801 32.5899 21.0333 32.6697C21.0865 32.7229 20.927 33.6802 20.6876 34.8236C20.3685 36.3127 20.1026 36.9508 19.7038 37.1636C19.4113 37.3231 17.8424 37.5092 16.247 37.5624C12.5509 37.722 10.1045 37.2433 7.15292 35.7808C3.56317 34.0259 1.46249 31.3402 1.46249 28.495V27.192L3.05794 28.7077C4.0418 29.6384 5.37134 30.569 6.56793 31.1275Z" fill="white"/>
<path d="M62.1962 5.83947C60.388 6.6372 59.5637 8.55173 59.7499 11.5831C59.9094 14.1092 60.6008 15.4122 62.1962 16.1301C63.5789 16.7683 64.8553 16.7683 66.2646 16.1035C67.408 15.5983 68.4716 14.2688 68.4716 13.3647C68.4716 13.019 68.2589 12.9126 67.4878 12.9126C66.6369 12.9126 66.3976 13.0456 66.0253 13.7103C65.2807 15.0399 63.2864 15.1197 62.4621 13.8433C61.8239 12.8594 61.8771 9.05696 62.5685 8.15287C63.4726 6.9297 65.5201 7.06265 66.0785 8.39219C66.371 9.08355 66.5571 9.18991 67.4346 9.18991C68.6844 9.18991 68.7907 8.68469 67.86 7.30197C66.7432 5.62675 64.1905 4.98857 62.1962 5.83947Z" fill="white"/>
<path d="M72.3263 5.83893C70.6244 6.58347 69.7469 8.39164 69.7735 11.1305C69.8001 14.2416 71.0765 16.0498 73.5494 16.5018C75.5437 16.8741 77.8305 15.5446 78.5485 13.63C79.0803 12.2473 78.9208 9.16278 78.256 7.85983C77.1924 5.78575 74.5067 4.88166 72.3263 5.83893ZM75.7831 7.96619C76.9265 9.10959 77.0062 12.7525 75.8894 13.9225C74.6662 15.2521 72.6985 14.7468 72.2199 12.9653C71.6083 10.838 72.0869 8.25869 73.1772 7.62051C74.0015 7.14188 75.0917 7.27483 75.7831 7.96619Z" fill="white"/>
<path d="M80.7026 10.918V16.3691H81.7663H82.8299V10.918V5.46692H81.7663H80.7026V10.918Z" fill="white"/>
<path d="M84.958 10.918V16.3691H86.1546H87.3246L87.4044 13.0187L87.4841 9.66826L89.4784 13.0187L91.4728 16.3425L92.6162 16.3691H93.733V10.918V5.46692H92.6693H91.6323L91.5525 8.9769L91.4728 12.5135L89.3455 8.9769L87.2182 5.46692H86.1014H84.958V10.918Z" fill="white"/>
<path d="M94.9825 5.62646C94.8762 5.73283 94.7964 6.15828 94.7964 6.55714C94.7964 7.27509 94.8496 7.30168 96.4716 7.38146L98.1202 7.46123L98.2 11.9019L98.2532 16.3691H99.3168H100.38V11.8487V7.32827H102.135H103.864L103.784 6.45078L103.704 5.59987L99.4232 5.5201C97.0832 5.49351 95.0889 5.54669 94.9825 5.62646Z" fill="white"/>
<path d="M105.087 5.65305C104.981 5.73283 104.901 8.20577 104.901 11.1042V16.3691H108.624H112.346V15.4385V14.5078H109.82H107.294V13.1782C107.294 12.3007 107.4 11.8487 107.64 11.8221C107.799 11.8221 108.73 11.7955 109.687 11.7689L111.416 11.7158L111.495 10.8383L111.575 9.98735H109.448H107.294V8.65781V7.32827H109.82H112.346V6.39759V5.46692H108.81C106.842 5.46692 105.167 5.54669 105.087 5.65305Z" fill="white"/>
<path d="M113.675 10.918V16.3691H117.132H120.588V15.4385V14.5078H118.195H115.802V9.98735V5.46692H114.738H113.675V10.918Z" fill="white"/>
<path d="M121.918 10.918V16.3691H125.508H129.098V15.4385V14.5078H126.545H124.019L124.099 13.1251L124.179 11.7158L126.253 11.7689L128.3 11.8221V10.8914V9.98735H126.173H124.046V8.65781V7.32827H126.572H129.098V6.39759V5.46692H125.508H121.918V10.918Z" fill="white"/>
<path d="M132.609 5.9197C129.95 7.22265 129.259 12.4876 131.386 15.0137C132.795 16.689 136.039 17.0878 138.087 15.8381C138.938 15.3062 138.938 15.3062 138.938 13.046V10.7858H136.811H134.683V11.5835C134.683 12.3281 134.737 12.3813 135.747 12.3813C136.784 12.3813 136.811 12.4079 136.811 13.3119C136.811 13.9501 136.651 14.2958 136.305 14.5085C135.428 14.9606 134.231 14.801 133.434 14.1363C132.795 13.5778 132.689 13.2853 132.609 11.6101C132.476 9.40309 132.636 8.57878 133.354 7.86083C134.072 7.14288 135.587 7.16947 136.279 7.86083C136.571 8.15333 136.811 8.49901 136.811 8.65855C136.811 8.7915 137.289 8.92446 137.874 8.92446C138.699 8.92446 138.938 8.8181 138.938 8.44582C138.938 7.62151 137.874 6.23879 136.944 5.83993C135.747 5.3347 133.699 5.36129 132.609 5.9197Z" fill="white"/>
<path d="M140.798 10.918V16.3691H141.995H143.192V14.3748V12.3805H143.963C144.654 12.3805 144.867 12.5932 145.824 14.3748L146.941 16.3691H148.137H149.361L148.191 14.1621L147.021 11.9817L147.898 11.1573C148.696 10.4128 148.776 10.1735 148.776 8.87054C148.776 6.29123 147.393 5.46692 143.138 5.46692H140.798V10.918ZM146.116 7.86009C146.409 8.15259 146.648 8.6844 146.648 9.03008C146.648 10.0671 145.984 10.5192 144.494 10.5192H143.192V8.92372V7.32827H144.388C145.239 7.32827 145.744 7.48782 146.116 7.86009Z" fill="white"/>
<path d="M153.748 5.65306C153.508 6.02533 149.839 15.8905 149.839 16.1298C149.839 16.2628 150.371 16.3691 150.982 16.3691C152.099 16.3691 152.152 16.3425 152.471 15.3055L152.79 14.2419H154.758H156.726L157.045 15.3055C157.364 16.3425 157.417 16.3691 158.534 16.3691C159.279 16.3691 159.677 16.2628 159.651 16.0235C159.651 15.8639 158.773 13.4176 157.736 10.6521L155.795 5.59987L154.838 5.5201C154.306 5.46692 153.827 5.54669 153.748 5.65306ZM155.396 10.3064C155.715 11.2105 155.955 12.0614 155.955 12.1678C155.955 12.2742 155.423 12.3805 154.758 12.3805C154.093 12.3805 153.562 12.2742 153.562 12.1678C153.562 11.8753 154.652 8.65781 154.758 8.65781C154.811 8.65781 155.104 9.40236 155.396 10.3064Z" fill="white"/>
<path d="M160.927 5.65305C160.821 5.73283 160.741 8.20577 160.741 11.1042V16.3691H161.938H163.134V14.5344V12.7262L164.969 12.5932C166.033 12.5135 167.123 12.2476 167.602 11.9551C168.692 11.3169 169.357 9.93417 169.17 8.73758C168.772 6.39759 167.176 5.49351 163.507 5.46692C162.177 5.46692 161.007 5.54669 160.927 5.65305ZM166.485 7.99304C167.043 8.76417 166.937 9.90758 166.272 10.3596C165.926 10.5989 165.129 10.7851 164.411 10.7851H163.134V9.03008V7.27509L164.623 7.38145C165.687 7.46123 166.246 7.64736 166.485 7.99304Z" fill="white"/>
<path d="M170.766 5.65305C170.66 5.73283 170.58 8.20577 170.58 11.1042V16.3691H171.777H172.973V14.1089V11.8487H175.101H177.228V14.1089V16.3691H178.424H179.621V10.8914V5.44033L178.504 5.5201L177.361 5.59987L177.281 7.78032L177.201 9.98735H175.101H172.973V7.72713V5.46692H171.963C171.404 5.46692 170.846 5.54669 170.766 5.65305Z" fill="white"/>
<path d="M67.6729 30.7293V35.5156H68.4706H69.2683V33.1756C69.2683 30.6761 69.481 30.1975 70.5181 30.1975C71.3956 30.1975 71.6615 30.9686 71.6615 33.3618V35.5156H72.4592H73.2569V32.7768C73.2569 29.7986 72.991 29.0541 71.7944 28.7616C71.4222 28.6552 70.7308 28.7616 70.199 28.9743L69.2683 29.3732V27.6448V25.9429H68.4706H67.6729V30.7293Z" fill="white"/>
<path d="M85.8886 26.6077C85.4631 27.0066 85.2238 27.565 85.2238 28.0702C85.2238 28.6818 85.1174 28.8679 84.692 28.8679C84.2931 28.8679 84.1602 29.0541 84.1602 29.5327C84.1602 30.0113 84.2931 30.1975 84.692 30.1975C85.1972 30.1975 85.2238 30.3836 85.2238 32.8565V35.5156H86.1545H87.0851V32.8565V30.1975H87.7499C88.2817 30.1975 88.4147 30.0645 88.4147 29.5327C88.4147 29.0009 88.2817 28.8679 87.7499 28.8679C87.032 28.8679 86.8192 28.1766 87.4042 27.5916C87.5904 27.4054 87.936 27.2725 88.202 27.2725C88.5476 27.2725 88.6806 27.0598 88.6806 26.6077C88.6806 25.9961 88.5742 25.9429 87.617 25.9429C86.8192 25.9429 86.3672 26.1291 85.8886 26.6077Z" fill="white"/>
<path d="M130.826 26.5811C130.401 27.0066 130.161 27.5384 130.161 28.0702C130.161 28.6818 130.055 28.8679 129.629 28.8679C129.231 28.8679 129.098 29.0541 129.098 29.5327C129.098 30.0113 129.231 30.1975 129.629 30.1975C130.135 30.1975 130.161 30.3836 130.161 32.8565V35.5156H131.092H132.023V32.8565V30.1975H132.687C133.219 30.1975 133.352 30.0645 133.352 29.5327C133.352 29.0009 133.219 28.8679 132.687 28.8679C132.156 28.8679 132.023 28.735 132.023 28.2032C132.023 27.6713 132.182 27.4852 132.847 27.3523C133.459 27.2459 133.618 27.0863 133.565 26.6343C133.432 25.7568 131.704 25.7036 130.826 26.5811Z" fill="white"/>
<path d="M59.2722 26.8736C58.9265 27.7245 59.3785 28.0702 60.7612 28.0702H62.0908V31.7929V35.5156H63.0215H63.9521V31.7929V28.0702H65.2817C66.5846 28.0702 66.6112 28.0436 66.6112 27.2725V26.4748H63.0215C60.0699 26.4748 59.3785 26.5545 59.2722 26.8736Z" fill="white"/>
<path d="M96.6571 28.0692C96.6571 28.601 96.5241 28.8669 96.2582 28.8669C96.0189 28.8669 95.8594 29.1062 95.8594 29.5317C95.8594 29.9572 96.0189 30.1965 96.2582 30.1965C96.5773 30.1965 96.6571 30.5953 96.6837 31.9781C96.7103 32.9885 96.7901 34.0787 96.8964 34.451C97.2687 35.8603 99.848 36.206 99.848 34.8764C99.848 34.3978 99.6884 34.2117 99.263 34.1319C98.7046 34.0521 98.6514 33.8926 98.5716 32.111C98.4919 30.2231 98.4919 30.1965 99.1832 30.1965C99.715 30.1965 99.848 30.0635 99.848 29.5317C99.848 28.9999 99.715 28.8669 99.1832 28.8669C98.6248 28.8669 98.5185 28.734 98.5185 28.0692C98.5185 27.3247 98.4387 27.2715 97.5878 27.2715C96.7369 27.2715 96.6571 27.3247 96.6571 28.0692Z" fill="white"/>
<path d="M76.5019 28.8937C74.2417 29.585 73.8428 34.132 75.9701 35.1691C77.4592 35.9136 79.4269 35.7541 80.1714 34.8234C80.7032 34.2118 79.9055 33.4939 79.161 33.8927C78.3898 34.3182 77.3528 34.265 76.8742 33.7598C76.1296 33.0152 76.4221 32.8557 78.443 32.8557C80.7298 32.8557 80.8894 32.6961 80.4639 31.0741C79.9587 29.1861 78.3898 28.3352 76.5019 28.8937ZM78.576 30.7018C78.9748 31.4995 78.9482 31.5261 77.6453 31.5261C76.8476 31.5261 76.4487 31.4198 76.4487 31.1805C76.4487 30.1966 78.0973 29.8243 78.576 30.7018Z" fill="white"/>
<path d="M110.273 29.0275C109.953 29.2402 109.688 29.2934 109.688 29.1604C109.688 29.0009 109.262 28.8679 108.757 28.8679H107.826V32.1918V35.5156H108.757H109.688V33.3086C109.688 30.942 109.9 30.4634 110.937 30.4634C111.469 30.4634 111.549 30.3304 111.549 29.5327C111.549 28.4957 111.203 28.3627 110.273 29.0275Z" fill="white"/>
<path d="M114.022 28.9738C111.522 30.0906 111.522 34.1324 114.022 35.329C115.67 36.1533 118.462 35.329 117.744 34.2388C117.585 33.9994 117.239 33.8399 116.973 33.8931C115.484 34.159 114.66 34.026 114.288 33.441L113.889 32.856H116.043H118.196V31.952C118.196 31.4467 118.09 30.7288 117.93 30.3565C117.425 29.027 115.484 28.3356 114.022 28.9738ZM115.91 30.3565C116.149 30.4363 116.335 30.7554 116.335 31.0213C116.335 31.4467 116.122 31.5265 115.112 31.5265C114.234 31.5265 113.968 31.4467 114.101 31.1808C114.686 30.197 115.032 30.0108 115.91 30.3565Z" fill="white"/>
<path d="M124.18 28.9746C122.85 29.5596 122.371 30.3308 122.239 32.006C122.132 33.3621 122.212 33.6546 122.85 34.3991C123.834 35.5691 125.243 35.968 126.52 35.4362C129.179 34.3194 129.232 30.0914 126.573 28.9746C125.456 28.5226 125.217 28.5226 124.18 28.9746ZM126.28 30.7828C126.839 31.5539 126.812 33.2291 126.28 33.761C125.27 34.798 124.047 33.9471 124.047 32.1921C124.047 30.3573 125.403 29.5064 126.28 30.7828Z" fill="white"/>
<path d="M139.947 28.9731C139.522 29.2124 139.149 29.2656 139.07 29.106C138.963 28.9731 138.564 28.8667 138.112 28.8667H137.341V32.1906V35.5144H138.272H139.203V32.9883C139.203 30.5154 139.229 30.4622 139.867 30.3026C141.064 30.0101 141.33 30.5419 141.33 33.1478V35.5144H142.261H143.191V32.9883C143.191 30.5154 143.191 30.4622 143.883 30.3026C144.255 30.1963 144.68 30.2494 144.84 30.409C144.999 30.5685 145.132 31.7651 145.159 33.0415L145.186 35.3815L146.063 35.4612L146.914 35.541V32.8022C146.914 29.7708 146.648 29.0529 145.425 28.7604C144.973 28.6274 144.388 28.7604 143.723 29.0795C142.766 29.5581 142.713 29.5581 142.128 29.0795C141.41 28.4945 140.904 28.4679 139.947 28.9731Z" fill="white"/>
<path d="M149.972 28.9751C148.775 29.4803 148.164 30.5705 148.137 32.2458C148.11 34.6921 149.892 36.1546 152.205 35.5164C153.641 35.1442 154.359 34.0274 154.359 32.2458C154.359 30.5971 153.748 29.4537 152.631 28.9751C151.514 28.5231 151.009 28.5231 149.972 28.9751ZM152.259 30.6503C152.471 30.8896 152.631 31.581 152.631 32.1926C152.631 33.4955 152.152 34.1869 151.275 34.1869C149.972 34.1869 149.387 31.7671 150.397 30.5705C150.823 30.0653 151.807 30.0919 152.259 30.6503Z" fill="white"/>
<path d="M158.162 28.9997C157.684 29.2124 157.285 29.2656 157.285 29.1326C157.285 28.9731 156.859 28.8667 156.354 28.8667H155.423V32.1906V35.5144H156.354H157.285V33.1478C157.285 30.5951 157.524 30.0899 158.667 30.2494C159.252 30.3292 159.279 30.4622 159.412 32.8553L159.545 35.3815L160.422 35.4612L161.273 35.541V32.7756C161.273 30.5154 161.194 29.8772 160.821 29.4517C160.183 28.7072 159.199 28.521 158.162 28.9997Z" fill="white"/>
<path d="M164.278 29C162.895 29.585 162.124 31.6325 162.603 33.3875C163.081 35.1425 165.076 36.153 166.937 35.5414C168.213 35.1159 168.506 34.7171 168.027 34.0523C167.708 33.6268 167.549 33.5737 167.123 33.8662C166.166 34.4512 164.464 34.0789 164.464 33.2546C164.464 32.9621 164.969 32.8557 166.512 32.8025L168.586 32.7227L168.506 31.6591C168.373 30.2764 167.841 29.4521 166.724 28.9734C165.608 28.5214 165.368 28.5214 164.278 29ZM166.591 30.7018C166.99 31.4996 166.964 31.5262 165.661 31.5262C164.863 31.5262 164.464 31.4198 164.464 31.1805C164.464 30.1966 166.113 29.8244 166.591 30.7018Z" fill="white"/>
<path d="M89.266 31.6866C89.3458 34.3988 89.3724 34.5318 90.0903 35.1434C90.9678 35.8879 91.5794 35.9411 92.6697 35.3827C93.1217 35.1434 93.4674 35.0902 93.4674 35.2497C93.4674 35.3827 93.8396 35.5156 94.2651 35.5156H95.0628V32.1918V28.868H94.1321H93.2281L93.1483 31.4473L93.0685 34.0532L92.2974 34.1329C91.8719 34.1861 91.4465 34.0797 91.3135 33.867C91.1806 33.6809 91.0742 32.4843 91.0742 31.1814V28.868H90.1169H89.1597L89.266 31.6866Z" fill="white"/>
<path d="M100.646 31.5522C100.646 34.1847 100.672 34.2379 101.443 35.0356C102.135 35.727 102.374 35.8068 103.118 35.6472C103.597 35.5408 104.528 35.4877 105.246 35.5143L106.495 35.5408V32.1904V28.8666H105.565H104.661L104.581 31.4459L104.501 34.0518H103.57H102.64L102.56 31.4459L102.48 28.8666H101.576H100.646V31.5522Z" fill="white"/>
<path d="M168.985 29.1064C168.985 29.2393 169.463 30.755 170.075 32.4302C171.218 35.7275 171.245 36.472 170.155 36.7379C169.703 36.8443 169.517 37.0836 169.517 37.5356C169.517 38.0941 169.65 38.1738 170.394 38.1738C171.724 38.1738 172.202 37.4293 173.745 33.0418C174.489 30.8614 175.101 29.0532 175.101 28.9734C175.101 28.9202 174.675 28.8671 174.17 28.8671C173.266 28.8671 173.239 28.8936 172.681 30.7284C172.388 31.7389 172.016 32.51 171.883 32.4302C171.75 32.3504 171.644 32.1643 171.644 32.0048C171.644 31.8718 171.458 31.1007 171.218 30.303C170.82 28.9202 170.766 28.8671 169.889 28.8671C169.384 28.8671 168.985 28.9734 168.985 29.1064Z" fill="white"/>
</svg>
