<svg width="179" height="55" viewBox="0 0 179 55" fill="none" xmlns="http://www.w3.org/2000/svg">
<path d="M116.603 18.9625C115.367 19.2275 114.616 19.5808 113.931 20.1991C112.894 21.1045 112.518 21.8995 112.518 23.2023C112.518 25.8301 113.6 26.8238 117.928 28.1929C121.241 29.2529 122.455 30.9753 121.02 32.6977C120.291 33.5589 119.209 33.8901 117.531 33.7797C116.051 33.6914 113.711 32.7639 113.048 32.0352C112.518 31.439 112.364 31.5053 111.856 32.499L111.414 33.3823L112.717 34.2435C114.528 35.4138 116.471 35.9217 118.525 35.7451C121.991 35.4801 123.78 33.8681 123.78 31.0194C123.78 28.7008 122.742 27.685 119.077 26.4042C115.477 25.1676 114.506 24.3285 114.837 22.6503C115.19 20.707 118.679 20.2654 121.638 21.767L122.632 22.2528L123.096 21.3032L123.559 20.3537L122.72 19.9341C120.976 19.0508 118.193 18.6092 116.603 18.9625Z" fill="white"/>
<path d="M52.6758 27.309V35.5898H53.6695H54.6632V29.186C54.6632 25.6528 54.7294 22.7821 54.8398 22.7821C54.9282 22.7821 57.0702 25.6528 59.6096 29.186L64.2469 35.5898H65.3069H66.3668V27.309V19.0281H65.3731H64.3794L64.3352 25.5866L64.269 32.145L59.5213 25.5866L54.7957 19.0281H53.7357H52.6758V27.309Z" fill="white"/>
<path d="M71.2266 27.309V35.5898H76.968H82.7094V34.7066V33.8233H77.9617H73.214V31.063V28.3027H77.2992H81.3844V27.309V26.3153H77.2992H73.214V23.6654V21.0155H77.8513H82.4885V20.0218V19.0281H76.8575H71.2266V27.309Z" fill="white"/>
<path d="M86.7281 22.384C87.3464 24.2389 88.561 27.9488 89.4443 30.6207L91.0563 35.4788H92.2266H93.3749L94.1478 33.0498C94.5453 31.7028 95.0752 30.0245 95.2961 29.2958C96.886 24.1065 97.5926 21.8982 97.7251 21.8982C97.7914 21.8982 98.8072 24.9456 99.9554 28.6775L102.031 35.4788L103.179 35.5451L104.306 35.6113L107.066 27.3084L109.826 19.0275H108.766H107.706L107.154 20.8383C106.293 23.6648 103.974 31.3936 103.665 32.4315C103.511 32.9615 103.334 33.381 103.268 33.381C103.202 33.381 102.848 32.4094 102.495 31.217C102.142 30.0466 101.435 27.6838 100.927 25.9835C100.397 24.2831 99.7125 22.0307 99.4034 20.9487L98.8072 19.0275H97.7472H96.6873L95.3402 23.4882C93.2424 30.5545 92.4033 33.2706 92.2929 33.3589C92.2487 33.4031 92.1604 33.3148 92.1162 33.1381C92.0058 32.7848 90.6146 28.2579 89.5547 24.7689C89.1793 23.4882 88.6272 21.6995 88.3401 20.7941L87.8323 19.1379L86.7281 19.0717L85.624 19.0054L86.7281 22.384Z" fill="white"/>
<path d="M22.3131 13.8398L18.1175 18.1017L16.6821 18.19C15.8872 18.2342 17.0134 18.3004 19.1554 18.3225L23.086 18.3667L23.1302 22.9819L23.1964 27.6191L28.187 20.3982L33.1997 13.1994L29.9978 11.3666C28.2312 10.3508 26.7296 9.55583 26.6413 9.55583C26.575 9.57791 24.6318 11.4991 22.3131 13.8398Z" fill="white"/>
<path d="M31.6756 26.7134L24.9184 36.3633L20.9215 36.4296L16.9026 36.4738L16.8584 31.9248L16.7922 27.3759L11.9561 34.3318C9.28418 38.152 7.12012 41.376 7.12012 41.4644C7.12012 41.6631 13.1044 45.0859 17.6313 47.4928L20.1487 48.8398L22.4452 47.6695C27.7229 44.9534 36.7325 39.6978 38.0795 38.5495L38.8745 37.8429L38.9628 30.8207C39.029 23.7985 38.8524 17.0413 38.5653 17.0413C38.4991 17.0413 35.3854 21.3916 31.6756 26.7134Z" fill="white"/>
<path d="M168.276 19.2275C165.979 20.0004 164.168 21.6345 163.13 23.8427C162.6 24.9689 162.534 25.3664 162.534 27.4201C162.556 29.562 162.6 29.8491 163.263 31.2182C164.875 34.5306 168.651 36.518 172.184 35.8555C173.862 35.5463 176.004 34.5306 176.866 33.6252L177.484 32.9627L176.49 31.9028C175.607 30.9753 175.43 30.887 175.077 31.1078C172.162 33.1173 169.866 33.2277 167.922 31.4611C166.575 30.2466 166.089 29.1425 166.089 27.3096C166.112 22.4515 171.036 20.1991 174.746 23.3348C175.143 23.6661 175.563 23.8648 175.651 23.7544C175.739 23.644 176.181 23.0919 176.645 22.5399C177.396 21.5683 177.44 21.4799 177.086 21.1266C175.077 19.1392 171.058 18.2559 168.276 19.2275Z" fill="white"/>
<path d="M131.731 27.4415V35.877L136.656 35.7445C141.668 35.634 142.419 35.5236 143.788 34.6183C145.069 33.8012 145.533 32.8296 145.533 31.0409C145.533 29.6056 145.467 29.3627 144.848 28.5898C144.495 28.1261 143.766 27.5519 143.28 27.309L142.353 26.8674L143.236 26.3595C144.451 25.6529 144.981 24.7254 144.981 23.2238C144.981 21.7664 144.473 20.8389 143.28 20.044C142.066 19.2269 140.586 19.0282 135.905 19.0282H131.731V27.4415ZM140.41 22.1639C141.602 22.7822 141.845 24.3279 140.874 25.2333C140.366 25.7191 140.101 25.7633 137.782 25.8295L135.265 25.9178V23.9084V21.8989H137.605C138.952 21.8989 140.145 22.0093 140.41 22.1639ZM140.785 28.921C142.243 29.6497 142.419 31.1293 141.183 32.1671C140.564 32.6971 140.388 32.7192 137.892 32.7192H135.265V30.6214V28.5236H137.649C139.46 28.5236 140.189 28.6119 140.785 28.921Z" fill="white"/>
<path d="M147.63 20.5738V22.1195H150.169H152.709V28.965V35.8105H154.475H156.242V28.965V22.1195H158.781H161.321V20.5738V19.028H154.475H147.63V20.5738Z" fill="white"/>
<path d="M4.73563 31.3957C1.4012 34.7522 1.22455 34.9509 1.24663 35.7459C1.26871 36.2096 1.33496 36.8721 1.42329 37.2033C1.55578 37.7775 1.73244 37.5567 4.13941 34.1118C5.55268 32.0803 7.12052 29.8279 7.62841 29.1212C8.11422 28.4367 8.46754 27.8625 8.40129 27.8625C8.31296 27.8625 6.67887 29.4525 4.73563 31.3957Z" fill="white"/>
<path d="M16.8364 7.52421C10.1013 11.0132 1.88669 16.0038 1.40088 16.8871C1.1359 17.4171 0.848827 32.7864 1.09173 34.1113L1.24631 34.9062L4.73531 31.3731C6.67855 29.4519 8.35681 27.862 8.4893 27.862C8.62179 27.862 8.71012 27.7737 8.66596 27.6633C8.64388 27.5528 8.82053 27.2879 9.06344 27.0891C9.30634 26.8904 9.35051 26.78 9.17385 26.8683C8.99719 26.9566 9.08552 26.802 9.39467 26.5371C9.70382 26.2721 9.79215 26.1175 9.6155 26.2058C9.43884 26.2942 9.52717 26.1396 9.81424 25.8967C10.1013 25.6317 10.2338 25.4329 10.1455 25.4329C10.0351 25.4329 10.1896 25.2121 10.4988 24.9692C10.8079 24.7263 10.8963 24.5717 10.7196 24.6601C10.543 24.7484 10.6313 24.5938 10.9184 24.3509C11.2054 24.0859 11.3379 23.8872 11.2496 23.8872C11.1392 23.8872 11.2496 23.7326 11.4704 23.556C11.7133 23.3793 11.8237 23.2247 11.6912 23.2247C11.5808 23.2247 11.7354 23.0039 12.0445 22.761C12.3537 22.5181 12.442 22.3635 12.2654 22.4518C12.0887 22.5402 12.1329 22.4298 12.3758 22.231C12.6187 22.0323 12.7953 21.7673 12.7512 21.6569C12.7291 21.5465 12.8616 21.3919 13.0383 21.3256C13.2149 21.2373 13.3695 21.0607 13.3695 20.9061C13.3695 20.7515 13.5241 20.5528 13.7228 20.4865C13.8995 20.4203 13.9878 20.2657 13.9215 20.1332C13.8553 20.0007 13.9436 19.8461 14.1203 19.7799C14.319 19.7136 14.4294 19.5591 14.3632 19.4486C14.2969 19.3603 14.4515 19.1616 14.6944 19.0291C14.9373 18.8966 15.0919 18.6978 15.0257 18.6095C14.849 18.3004 15.4894 18.1458 16.8143 18.1458H18.0289L22.4232 13.7735L26.8176 9.37912L23.5494 7.70087C21.7387 6.77341 20.1708 6.00053 20.0163 6.00053C19.8838 6.00053 18.4484 6.68508 16.8364 7.52421Z" fill="white"/>
<path d="M164.72 21.2811L164.08 22.0098L164.809 21.3694C165.184 20.994 165.515 20.6848 165.515 20.6407C165.515 20.464 165.339 20.6186 164.72 21.2811Z" fill="white"/>
<path d="M174.836 23.5548C175.168 23.9081 175.477 24.151 175.521 24.0848C175.587 24.0406 175.3 23.7536 174.925 23.4665L174.24 22.9365L174.836 23.5548Z" fill="white"/>
<path d="M166.023 27.3106C166.023 27.7964 166.067 27.973 166.112 27.686C166.156 27.421 166.156 27.0235 166.112 26.8027C166.045 26.6039 166.001 26.8247 166.023 27.3106Z" fill="white"/>
</svg>
