<svg width="160" height="41" viewBox="0 0 160 41" fill="none" xmlns="http://www.w3.org/2000/svg">
<path d="M84.7122 1.10712L78.7646 2.19661L78.8182 2.73243C78.8718 3.21466 78.9433 3.26824 79.9077 3.4647C81.1401 3.71475 81.8545 4.322 82.2832 5.5008C82.6939 6.626 82.8904 13.3058 82.8011 22.9326C82.7654 27.0584 82.7118 32.3272 82.6939 34.6312L82.6761 38.8284L83.6227 39.0427C87.1591 39.8643 92.3565 40.293 94.9819 40.0072C101.715 39.2392 105.948 35.8457 107.841 29.6839C108.288 28.2372 108.324 27.8621 108.324 24.808C108.342 21.0751 108.199 20.2714 106.984 17.7531C104.984 13.5559 101.09 11.1804 96.643 11.4662C94.8926 11.5734 93.3031 11.9484 91.8921 12.5735C91.3563 12.8057 90.9276 12.9486 90.9276 12.8772C90.9098 12.8057 90.9098 9.87661 90.9276 6.3581C90.9276 2.85745 90.874 -0.000225015 90.8026 -0.000225015C90.7133 0.0176354 87.9806 0.517728 84.7122 1.10712ZM95.6964 14.824C97.2681 15.5741 98.6433 17.6459 99.3578 20.3428C99.8043 22.0574 99.9829 26.076 99.6971 28.2907C99.072 33.0416 97.2859 36.6137 94.9462 37.7568C94.1246 38.1676 91.4456 38.2569 91.0884 37.8997C90.9455 37.7568 90.8562 34.524 90.7847 26.3618C90.7133 16.7707 90.7312 15.0204 90.9455 14.8775C91.4456 14.5739 93.178 14.2881 94.0532 14.3774C94.5533 14.431 95.2856 14.6275 95.6964 14.824Z" fill="white"/>
<path d="M0.0178605 1.48179C0.0178605 2.33909 0.214326 2.48197 1.37526 2.48197C2.69693 2.48197 4.09005 3.32142 4.67944 4.48235C4.87591 4.87528 5.16167 5.73258 5.2867 6.39342C5.73321 8.48309 5.96539 15.4844 5.84037 22.6643C5.67963 32.5411 5.42958 34.7915 4.35795 36.2025C3.71498 37.0598 3.19702 37.3277 1.57172 37.6492L0.107163 37.9528L0.0535814 38.703L0 39.4531H10.3769H20.7539L20.7003 38.6851L20.6467 37.935L19.0392 37.6492C17.2889 37.3456 16.9139 37.2027 16.3423 36.5597C15.7351 35.8989 15.3779 35.0595 15.1099 33.6485C14.842 32.2911 14.4848 26.1114 14.4848 22.9501V21.1819L17.2175 21.2712C20.3788 21.3783 20.8789 21.5212 21.9148 22.7179C22.5399 23.4323 23.0936 24.7004 23.5222 26.3614C23.5579 26.5043 23.8973 26.5936 24.3974 26.5936H25.2011L25.1654 20.1102L25.1118 13.6448L24.3617 13.5912C23.6115 13.5376 23.6115 13.5376 23.4151 14.3056C23.0757 15.6273 23.0221 15.7702 22.6113 16.5917C21.6469 18.4849 20.736 18.8957 17.1282 19.0386L14.4313 19.1458L14.5741 13.0554C14.6456 9.6976 14.7527 6.17909 14.8242 5.21462L14.9313 3.4643H18.9499C23.5579 3.48216 24.2724 3.60718 26.0584 4.80383C27.7016 5.91118 29.4698 8.50095 30.3628 11.1086C30.5235 11.5908 30.7021 11.9837 30.7379 12.0016C30.7914 12.0016 31.2201 11.9123 31.7023 11.7873L32.5775 11.5729L32.4703 7.80439C32.3989 5.73258 32.3453 3.2857 32.3453 2.35695V0.695929H16.1816H0.0178605V1.48179Z" fill="white"/>
<path d="M76.1209 11.0723C73.7455 11.4652 71.3522 13.3227 69.7626 15.9839L68.9232 17.3949L69.0482 14.1979C69.1732 11.1259 69.1553 11.0009 68.8517 11.0902C68.6552 11.1438 65.869 11.6974 62.6541 12.3225L56.7959 13.4656L56.8495 14.0014C56.9031 14.5015 56.9566 14.5372 57.8497 14.6623C59.9929 14.9838 60.4752 15.716 60.7788 19.1452C61.011 21.9315 60.8502 33.9516 60.5466 35.3447C60.2608 36.7021 59.3857 37.5951 58.1533 37.7558C56.7959 37.9344 56.778 37.9523 56.8495 38.6846L56.9031 39.3633H65.3868H73.8705L73.9241 38.756C73.9955 38.0059 73.7812 37.8451 72.6381 37.8451C70.6735 37.8451 69.6733 37.1486 69.3339 35.5233C68.9767 33.898 68.7267 27.7004 68.8338 23.4139C68.9589 18.6987 68.9053 18.8416 70.5663 18.3058C72.531 17.6628 74.6206 17.8057 76.5496 18.7344C77.139 19.0202 77.6212 19.2345 77.6391 19.2167C77.7105 19.0917 80.3717 12.1618 80.4253 11.9653C80.5682 11.3581 77.8177 10.8044 76.1209 11.0723Z" fill="white"/>
<path d="M39.7933 11.3412C34.5423 12.2878 30.613 15.8956 29.0949 21.1645C28.7377 22.3968 28.6841 22.9862 28.6841 25.701C28.6841 28.3622 28.7377 29.0409 29.077 30.2554C30.1665 34.2026 32.1847 36.8817 35.3282 38.5248C37.4357 39.6143 39.4004 40.043 42.258 40.043C46.9196 40.0251 50.0809 38.757 52.885 35.7386C54.3317 34.2026 55.5105 32.0058 56.1356 29.7196C56.6893 27.6299 56.6893 23.4149 56.1356 21.1466C55.314 17.8603 53.5994 15.1812 51.2061 13.4666C48.3484 11.4305 43.8833 10.5911 39.7933 11.3412ZM43.8833 13.2701C45.4015 13.9667 46.5445 15.7885 47.259 18.6461C48.5628 23.7542 48.1877 32.2201 46.5088 35.6314C45.1514 38.4177 42.3295 39.1678 40.2755 37.2746C38.2216 35.3814 37.1678 31.3092 37.1678 25.2902C37.1678 19.3248 38.0072 15.592 39.704 13.9667C40.9185 12.7879 42.3473 12.5557 43.8833 13.2701Z" fill="white"/>
<path d="M122.505 11.2518C117.807 11.9305 113.664 15.324 112.02 19.807C111.199 22.0931 111.038 23.0218 111.038 25.7902C111.056 27.9692 111.127 28.7372 111.431 29.8981C112.771 34.8455 116.289 38.364 121.201 39.6499C123.13 40.1679 126.541 40.2036 128.434 39.7392C130.613 39.2213 133.149 37.8996 134.65 36.5065C135.989 35.2741 136.132 34.9705 135.65 34.4347C135.382 34.1311 135.328 34.1489 134.542 34.649C133.042 35.5956 131.899 35.9171 129.774 36.0243C127.416 36.1136 126.202 35.8992 124.541 35.0777C122.897 34.2561 121.611 32.9165 120.736 31.1484C119.879 29.3802 119.54 28.0764 119.397 25.9331L119.272 24.2721H127.881H136.471V23.5934C136.454 21.4858 135.811 18.7532 134.846 16.7885C132.703 12.4306 128.202 10.4124 122.505 11.2518ZM125.523 13.1986C126.309 13.6808 126.987 14.7703 127.38 16.1813C127.702 17.3065 128.238 21.8609 128.059 22.0217C128.023 22.0574 126.023 22.1467 123.63 22.2181L119.29 22.3432L119.415 21.2001C119.575 19.5748 120.183 17.1993 120.754 15.967C121.897 13.3951 123.933 12.2163 125.523 13.1986Z" fill="white"/>
<path d="M147.098 11.3056C143.116 12.0915 140.133 14.4848 139.222 17.6282C138.579 19.8429 139.043 22.7721 140.329 24.4509C141.49 25.9869 143.098 26.9336 146.563 28.2016C151.117 29.8448 152.742 31.5416 152.207 34.0956C151.939 35.453 151.224 36.3996 150.01 37.0247C149.135 37.4534 148.795 37.5427 147.599 37.5248C144.437 37.5069 142.365 35.9174 140.526 32.0952C139.811 30.5949 139.526 30.1663 139.24 30.1663C138.436 30.1663 138.4 30.2735 138.436 34.1135C138.436 36.1138 138.49 37.9356 138.543 38.1499C138.686 38.65 140.151 39.1501 142.991 39.6323C149.581 40.7397 154.278 39.9002 157.315 37.0604C159.369 35.1494 160.351 32.2381 159.887 29.4162C159.619 27.7909 159.047 26.7014 157.886 25.594C156.636 24.4152 155.814 23.9509 152.51 22.5577C149.42 21.2361 148.527 20.7538 147.509 19.8429C146.545 18.9678 146.295 18.4141 146.295 17.0924C146.313 14.4134 148.134 12.8059 150.813 13.0917C153.242 13.3417 154.761 14.6098 156.225 17.5568C156.761 18.6463 157.19 19.6465 157.19 19.7715C157.19 19.9501 157.315 19.9858 157.6 19.9144C157.815 19.8608 158.101 19.8072 158.226 19.8072C158.386 19.8072 158.44 19.0035 158.44 16.3602C158.44 13.8776 158.386 12.8238 158.226 12.6273C157.368 11.5557 150.17 10.6984 147.098 11.3056Z" fill="white"/>
</svg>
