<svg width="25" height="20" viewBox="0 0 25 20" fill="none" xmlns="http://www.w3.org/2000/svg">
<path d="M23.5993 2.31765C23.2258 2.48205 22.8417 2.62083 22.4492 2.73352C22.9138 2.21205 23.2681 1.5985 23.4843 0.927103C23.5328 0.776618 23.4826 0.611891 23.3579 0.513442C23.2334 0.414948 23.0604 0.403148 22.9234 0.48376C22.0899 0.974299 21.1908 1.32684 20.248 1.53296C19.2982 0.61203 18.0084 0.0878906 16.6749 0.0878906C13.8601 0.0878906 11.5701 2.36042 11.5701 5.15368C11.5701 5.37366 11.5841 5.59246 11.6119 5.8082C8.11902 5.50387 4.87176 3.80014 2.6419 1.08565C2.56243 0.98891 2.44001 0.936736 2.31466 0.946737C2.18926 0.956463 2.07654 1.02666 2.01319 1.13456C1.56092 1.90468 1.32183 2.78551 1.32183 3.68174C1.32183 4.90239 1.76095 6.0605 2.5367 6.96549C2.30082 6.88441 2.07194 6.78311 1.85347 6.66277C1.7362 6.59796 1.59306 6.59898 1.47653 6.66525C1.35996 6.73158 1.28685 6.85349 1.28374 6.98678C1.28319 7.00923 1.28319 7.03167 1.28319 7.05444C1.28319 8.87644 2.27132 10.5168 3.7821 11.4109C3.65229 11.398 3.52261 11.3794 3.39373 11.3549C3.26086 11.3297 3.12427 11.376 3.03468 11.4765C2.94495 11.577 2.91522 11.7171 2.9566 11.845C3.51579 13.5776 4.9555 14.8519 6.69598 15.2404C5.25242 16.1377 3.60162 16.6077 1.86866 16.6077C1.50704 16.6077 1.14339 16.5867 0.78749 16.5448C0.610679 16.524 0.441623 16.6276 0.381386 16.7945C0.321148 16.9614 0.385008 17.1475 0.535393 17.2432C2.76168 18.6598 5.33587 19.4085 7.9796 19.4085C13.1768 19.4085 16.4281 16.9764 18.2402 14.9361C20.5001 12.3919 21.7961 9.02448 21.7961 5.69722C21.7961 5.55821 21.7939 5.41787 21.7896 5.27794C22.6812 4.61133 23.4488 3.80457 24.0734 2.87732C24.1683 2.73652 24.158 2.55036 24.0481 2.42075C23.9384 2.29092 23.7555 2.24897 23.5993 2.31765Z" fill="white"/>
</svg>
